<svg width="35" height="35" viewBox="0 0 35 35" fill="none" xmlns="http://www.w3.org/2000/svg">
<path d="M17.5 0C27.1425 0 35 7.8575 35 17.5C35 27.1425 27.1425 35 17.5 35C7.8575 35 0 27.1425 0 17.5C0 7.8575 7.8575 0 17.5 0ZM11.62 21.525C11.1125 22.0325 11.1125 22.8725 11.62 23.38C11.8825 23.6425 12.215 23.765 12.5475 23.765C12.88 23.765 13.2125 23.6425 13.475 23.38L17.5 19.355L21.525 23.38C21.7875 23.6425 22.12 23.765 22.4525 23.765C22.785 23.765 23.1175 23.6425 23.38 23.38C23.8875 22.8725 23.8875 22.0325 23.38 21.525L19.355 17.5L23.38 13.475C23.8875 12.9675 23.8875 12.1275 23.38 11.62C22.8725 11.1125 22.0325 11.1125 21.525 11.62L17.5 15.645L13.475 11.62C12.9675 11.1125 12.1275 11.1125 11.62 11.62C11.1125 12.1275 11.1125 12.9675 11.62 13.475L15.645 17.5L11.62 21.525Z" fill="#FF512F"/>
</svg>
