<svg width="68" height="68" viewBox="0 0 68 68" fill="none" xmlns="http://www.w3.org/2000/svg">
<path d="M34 0C15.266 0 0 15.266 0 34C0 52.734 15.266 68 34 68C52.734 68 68 52.734 68 34C68 15.266 52.734 0 34 0ZM40.086 44.2C41.072 45.186 41.072 46.818 40.086 47.804C39.576 48.314 38.93 48.552 38.284 48.552C37.638 48.552 36.992 48.314 36.482 47.804L24.48 35.802C23.494 34.816 23.494 33.184 24.48 32.198L36.482 20.196C37.468 19.21 39.1 19.21 40.086 20.196C41.072 21.182 41.072 22.814 40.086 23.8L29.886 34L40.086 44.2Z" fill="url(#paint0_linear_194_823)"/>
<defs>
<linearGradient id="paint0_linear_194_823" x1="68" y1="68" x2="68" y2="-1.23859e-06" gradientUnits="userSpaceOnUse">
<stop stop-color="#02198B"/>
<stop offset="1" stop-color="#000137"/>
</linearGradient>
</defs>
</svg>
