<svg width="68" height="70" viewBox="0 0 68 70" fill="none" xmlns="http://www.w3.org/2000/svg">
<path d="M34 0.0740967C15.266 0.0740967 0 15.7707 0 35.0332C0 54.2956 15.266 69.9922 34 69.9922C52.734 69.9922 68 54.2956 68 35.0332C68 15.7707 52.734 0.0740967 34 0.0740967ZM40.086 45.5209C41.072 46.5347 41.072 48.2127 40.086 49.2266C39.576 49.7509 38.93 49.9957 38.284 49.9957C37.638 49.9957 36.992 49.7509 36.482 49.2266L24.48 36.886C23.494 35.8722 23.494 34.1942 24.48 33.1803L36.482 20.8398C37.468 19.826 39.1 19.826 40.086 20.8398C41.072 21.8536 41.072 23.5316 40.086 24.5454L29.886 35.0332L40.086 45.5209Z" fill="url(#paint0_linear_194_817)"/>
<defs>
<linearGradient id="paint0_linear_194_817" x1="68" y1="69.9922" x2="68" y2="0.0740954" gradientUnits="userSpaceOnUse">
<stop stop-color="#3CB4D9"/>
<stop offset="1" stop-color="#FEFFFD"/>
</linearGradient>
</defs>
</svg>
